<?xml version="1.0" encoding="UTF-8"?>
<svg width="62px" height="62px" viewBox="0 0 62 62" version="1.1" xmlns="http://www.w3.org/2000/svg" xmlns:xlink="http://www.w3.org/1999/xlink">
    <!-- Generator: Sketch 64 (93537) - https://sketch.com -->
    <title>Atoms/Assets/Icons/DryClean</title>
    <desc>Created with Sketch.</desc>
    <g id="Atoms/Assets/Icons/DryClean" stroke="none" stroke-width="1" fill="none" fill-rule="evenodd">
        <g id="dress" transform="translate(15.000000, 7.000000)" fill-rule="nonzero">
            <path d="M21.64224,14.592 L21.28128,15.5904 C20.49024,17.75616 18.432,19.2 16.128,19.2 C14.976,19.2 13.88544,18.83904 12.98688,18.20928 C12.08064,17.57184 11.3664,16.67328 10.97472,15.5904 L10.61376,14.592 L21.64224,14.592 Z" id="Path" fill="#FBC716"></path>
            <g id="Group" transform="translate(0.768000, 8.448000)" fill="#00A8E1">
                <path d="M30.72,7.70304 L30.72,9.216 L29.952,9.216 L25.77408,7.45728 L26.88,4.608 L29.26848,5.568 C30.144,5.9136 30.72,6.7584 30.72,7.70304 Z" id="Path"></path>
                <path d="M3.84,4.608 L4.94592,7.45728 L0.768,9.216 L0,9.216 L0,7.70304 C0,6.7584 0.576,5.9136 1.45152,5.568 L3.84,4.608 Z" id="Path"></path>
                <polygon id="Path" points="22.272 2.304 21.11232 5.4912 15.36 3.072 9.60768 5.4912 8.448 2.304 15.36 -1.36424205e-15"></polygon>
            </g>
            <path d="M22.75584,28.40064 L26.63424,40.58112 C25.8048,41.08032 24.52224,41.77152 22.94016,42.38592 C21.9264,42.7776 20.78976,43.14624 19.584,43.39968 C18.48576,43.63008 17.3184,43.776 16.128,43.776 C14.9376,43.776 13.77024,43.63008 12.672,43.39968 C11.46624,43.14624 10.3296,42.7776 9.31584,42.38592 C7.73376,41.77152 6.4512,41.08032 5.62176,40.58112 L9.984,26.88 L15.36,26.88 L15.36,28.1472 C15.36,29.1456 16.1664,29.952 17.1648,29.952 C17.49504,29.952 17.80992,29.85984 18.09408,29.69856 L20.64384,28.15488 L20.65152,28.15488 C20.89728,28.32384 21.18912,28.416 21.504,28.416 C21.81888,28.416 22.11072,28.32384 22.35648,28.15488 L22.36416,28.15488 L22.75584,28.40064 Z" id="Path" fill-opacity="0.2" fill="#641BB4"></path>
            <path d="M27.648,13.056 L26.54208,15.90528 L22.89408,25.27488 L22.36416,25.60512 C22.35648,25.60512 22.35648,25.60512 22.35648,25.60512 C22.11072,25.43616 21.81888,25.344 21.504,25.344 C21.18912,25.344 20.89728,25.43616 20.65152,25.60512 C20.65152,25.60512 20.65152,25.60512 20.64384,25.60512 L18.09408,24.06144 C17.80992,23.90016 17.49504,23.808 17.1648,23.808 C16.6656,23.808 16.21248,24.00768 15.88992,24.33792 C15.55968,24.66048 15.36,25.1136 15.36,25.6128 L15.36,26.88 L9.984,26.88 L5.71392,15.90528 L4.608,13.056 C5.0688,11.68128 6.35136,10.752 7.80288,10.752 L9.216,10.752 L10.37568,13.9392 L10.61376,14.592 L10.97472,15.5904 C11.3664,16.67328 12.08064,17.57184 12.98688,18.20928 C13.88544,18.83904 14.976,19.2 16.128,19.2 C18.432,19.2 20.49024,17.75616 21.28128,15.5904 L21.64224,14.592 L21.88032,13.9392 L23.04,10.752 L24.45312,10.752 C25.17504,10.752 25.86624,10.9824 26.4192,11.38944 C26.97984,11.79648 27.4176,12.3648 27.648,13.056 L27.648,13.056 Z" id="Path" fill-opacity="0.2" fill="#641BB4"></path>
            <path d="M26.63424,40.58112 C25.8048,41.08032 24.52224,41.77152 22.94016,42.38592 C21.9264,42.7776 20.78976,43.14624 19.584,43.39968 C18.48576,43.63008 17.3184,43.776 16.128,43.776 C14.9376,43.776 13.77024,43.63008 12.672,43.39968 C11.46624,43.14624 10.3296,42.7776 9.31584,42.38592 C7.73376,41.77152 6.4512,41.08032 5.62176,40.58112 L4.608,43.776 C4.608,43.776 5.98272,44.55936 8.13312,45.33504 C9.2544,45.74208 10.5984,46.14912 12.06528,46.43328 C13.34016,46.68672 14.71488,46.848 16.128,46.848 C17.54112,46.848 18.91584,46.68672 20.19072,46.43328 C21.6576,46.14912 23.0016,45.74208 24.12288,45.33504 C26.27328,44.55936 27.648,43.776 27.648,43.776 L26.63424,40.58112 Z" id="Path" fill-opacity="0.2" fill="#641BB4"></path>
            <path d="M18.09408,24.06144 L20.64384,25.60512 C20.2368,25.8816 19.968,26.35008 19.968,26.88 C19.968,27.40992 20.2368,27.8784 20.64384,28.15488 L18.09408,29.69856 C17.80992,29.85984 17.49504,29.952 17.1648,29.952 C16.1664,29.952 15.36,29.1456 15.36,28.1472 L15.36,26.88 L15.36,25.6128 C15.36,25.1136 15.55968,24.66048 15.88992,24.33792 C16.21248,24.00768 16.6656,23.808 17.1648,23.808 C17.49504,23.808 17.80992,23.90016 18.09408,24.06144 L18.09408,24.06144 Z" id="Path" fill="#641BB4"></path>
            <path d="M27.648,25.6128 L27.648,28.1472 C27.648,28.6464 27.44832,29.09952 27.11808,29.42208 C26.79552,29.75232 26.3424,29.952 25.8432,29.952 C25.51296,29.952 25.19808,29.85984 24.91392,29.69856 L22.75584,28.40064 L22.36416,28.15488 C22.7712,27.8784 23.04,27.40992 23.04,26.88 C23.04,26.35008 22.7712,25.8816 22.36416,25.60512 L22.89408,25.27488 L24.91392,24.06144 C25.19808,23.90016 25.51296,23.808 25.8432,23.808 C26.8416,23.808 27.648,24.6144 27.648,25.6128 L27.648,25.6128 Z" id="Path" fill="#641BB4"></path>
            <path d="M22.36416,25.60512 C22.7712,25.8816 23.04,26.35008 23.04,26.88 C23.04,27.40992 22.7712,27.8784 22.36416,28.15488 C22.35648,28.15488 22.35648,28.15488 22.35648,28.15488 C22.11072,28.32384 21.81888,28.416 21.504,28.416 C21.18912,28.416 20.89728,28.32384 20.65152,28.15488 C20.65152,28.15488 20.65152,28.15488 20.64384,28.15488 C20.2368,27.8784 19.968,27.40992 19.968,26.88 C19.968,26.35008 20.2368,25.8816 20.64384,25.60512 L20.65152,25.60512 C20.89728,25.43616 21.18912,25.344 21.504,25.344 C21.81888,25.344 22.11072,25.43616 22.35648,25.60512 L22.36416,25.60512 Z" id="Path" fill="#641BB4"></path>
            <path d="M30.32448,13.299456 L28.226304,12.460032 C27.5712,10.968576 26.105856,9.984 24.451584,9.984 L23.163648,9.984 L16.896,7.89504 L16.896,6.461952 L18.339072,5.01888 C18.894336,4.463616 19.2,3.725568 19.2,2.939904 C19.2,1.319424 17.880576,0 16.260096,0 L15.995904,0 C14.375424,0 13.056,1.319424 13.056,2.939904 L13.056,3.072 L14.592,3.072 L14.592,2.939904 C14.592,2.16576 15.22176,1.536 15.995904,1.536 L16.260096,1.536 C17.03424,1.536 17.664,2.16576 17.664,2.939904 C17.664,3.309312 17.51424,3.671808 17.25312,3.932928 L15.36,5.826048 L15.36,7.89504 L9.092352,9.984 L7.804416,9.984 C6.150144,9.984 4.6848,10.968576 4.028928,12.460032 L1.930752,13.299456 C0.758016,13.768704 5.45696821e-15,14.888448 5.45696821e-15,16.151808 L5.45696821e-15,18.432 L1.691136,18.432 L5.286144,16.918272 L9.16992,26.904576 L3.687936,44.133888 L4.227072,44.441856 C4.453632,44.572416 9.851904,47.616 16.128,47.616 C22.404096,47.616 27.802368,44.572416 28.028928,44.442624 L28.568064,44.134656 L24.102912,30.102528 L24.519168,30.352128 C24.918528,30.59328 25.377024,30.72 25.8432,30.72 C27.261696,30.72 28.416,29.565696 28.416,28.1472 L28.416,25.6128 C28.416,24.194304 27.261696,23.04 25.8432,23.04 C25.377024,23.04 24.918528,23.16672 24.519936,23.407104 L24.423168,23.465472 L26.969088,16.91904 L30.564864,18.432 L32.256,18.432 L32.256,16.151808 C32.256,14.888448 31.497984,13.768704 30.32448,13.299456 L30.32448,13.299456 Z M20.544768,15.36 C19.859712,17.197824 18.091008,18.432 16.128,18.432 C14.164992,18.432 12.396288,17.197824 11.711232,15.36 L20.544768,15.36 Z M12.635136,13.824 L16.128,12.35328 L19.620864,13.824 L12.635136,13.824 Z M21.434112,12.920832 L16.128,10.68672 L10.821888,12.920832 L10.207488,11.230464 L16.128,9.257472 L22.048512,11.231232 L21.434112,12.920832 Z M7.804416,11.52 L8.6784,11.52 L10.254336,15.853824 C11.149056,18.314496 13.509888,19.968 16.128,19.968 C18.746112,19.968 21.106944,18.314496 22.001664,15.853824 L23.5776,11.52 L24.451584,11.52 C25.485312,11.52 26.408448,12.12672 26.824704,13.055232 L22.28736,24.72192 C22.0416,24.632832 21.78048,24.576 21.504,24.576 C21.218304,24.576 20.9472,24.635136 20.69376,24.730368 L18.488064,23.407104 C18.089472,23.16672 17.630976,23.04 17.1648,23.04 C15.746304,23.04 14.592,24.194304 14.592,25.6128 L14.592,26.112 L10.509312,26.112 L5.432064,13.055232 C5.847552,12.12672 6.770688,11.52 7.804416,11.52 L7.804416,11.52 Z M11.771136,43.978752 L11.463936,45.51552 C10.635264,45.324288 9.85728,45.101568 9.146112,44.867328 L9.74592,43.367424 C10.386432,43.594752 11.065344,43.801344 11.771136,43.978752 L11.771136,43.978752 Z M13.27488,44.292864 C13.953024,44.407296 14.648832,44.488704 15.36,44.523264 L15.36,46.0608 C14.54208,46.02624 13.74336,45.936384 12.97152,45.8112 L13.27488,44.292864 Z M16.896,44.523264 C17.607168,44.489472 18.302976,44.408064 18.98112,44.292864 L19.28448,45.8112 C18.51264,45.936384 17.713152,46.025472 16.896,46.0608 L16.896,44.523264 Z M20.484864,43.978752 C21.191424,43.802112 21.869568,43.594752 22.51008,43.367424 L23.109888,44.867328 C22.39872,45.101568 21.619968,45.324288 20.791296,45.51552 L20.484864,43.978752 Z M16.128,43.008 C12.19968,43.008 8.606976,41.384448 6.54336,40.226304 L10.545408,27.648 L14.592,27.648 L14.592,28.1472 C14.592,29.565696 15.746304,30.72 17.1648,30.72 C17.630976,30.72 18.089472,30.59328 18.488064,30.352896 L20.694528,29.028864 C20.9472,29.124864 21.218304,29.184 21.504,29.184 C21.735168,29.184 21.954048,29.139456 22.16448,29.075712 L25.71264,40.226304 C23.649024,41.384448 20.05632,43.008 16.128,43.008 Z M22.272,26.88 C22.272,27.303936 21.927936,27.648 21.504,27.648 C21.080064,27.648 20.736,27.303936 20.736,26.88 C20.736,26.456064 21.080064,26.112 21.504,26.112 C21.927936,26.112 22.272,26.456064 22.272,26.88 Z M19.483392,27.964416 L17.696256,29.037312 C17.535744,29.133312 17.352192,29.184 17.1648,29.184 C16.59264,29.184 16.128,28.71936 16.128,28.1472 L16.128,25.6128 C16.128,25.041408 16.59264,24.576 17.1648,24.576 C17.352192,24.576 17.535744,24.626688 17.697024,24.723456 L19.483392,25.795584 C19.308288,26.120448 19.2,26.486016 19.2,26.88 C19.2,27.273984 19.308288,27.639552 19.483392,27.964416 Z M1.536,16.83072 L1.536,16.151808 C1.536,15.520512 1.914624,14.959872 2.501376,14.7264 L4.173312,14.057472 L4.729344,15.48672 L1.536,16.83072 Z M6.067968,41.719296 C6.706176,42.0672 7.463424,42.445056 8.315136,42.80832 L7.698432,44.348928 C6.747648,43.977984 6.001152,43.627776 5.534208,43.395072 L6.067968,41.719296 Z M24.557568,44.348928 L23.940864,42.80832 C24.792576,42.445056 25.549824,42.0672 26.188032,41.719296 L26.721024,43.395072 C26.25408,43.627776 25.507584,43.977984 24.557568,44.348928 L24.557568,44.348928 Z M25.311744,24.722688 C25.472256,24.626688 25.655808,24.576 25.8432,24.576 C26.414592,24.576 26.88,25.04064 26.88,25.6128 L26.88,28.147968 C26.88,28.71936 26.41536,29.184768 25.8432,29.184768 C25.655808,29.184768 25.472256,29.13408 25.310976,29.037312 L23.524608,27.965184 C23.699712,27.639552 23.808,27.273984 23.808,26.88 C23.808,26.486016 23.699712,26.120448 23.524608,25.795584 L25.311744,24.722688 Z M30.72,16.83072 L27.526656,15.48672 L28.082688,14.057472 L29.754624,14.7264 C30.341376,14.959872 30.72,15.520512 30.72,16.151808 L30.72,16.83072 Z" id="Shape" fill="#000000"></path>
            <polygon id="Path" fill="#000000" points="15.36 32.256 16.896 32.256 16.896 41.472 15.36 41.472"></polygon>
            <polygon id="Path" fill="#000000" transform="translate(20.745990, 35.710533) rotate(-10.309970) translate(-20.745990, -35.710533) " points="19.9782602 31.4167753 21.5137201 31.4167753 21.5137201 40.0042902 19.9782602 40.0042902"></polygon>
            <polygon id="Path" fill="#000000" transform="translate(11.528070, 35.716923) rotate(-79.690030) translate(-11.528070, -35.716923) " points="7.23431266 34.9491933 15.8218276 34.9491933 15.8218276 36.4846532 7.23431266 36.4846532"></polygon>
            <polygon id="Path" fill="#000000" transform="translate(10.555245, 21.141563) rotate(-26.565051) translate(-10.555245, -21.141563) " points="9.78761174 20.3743138 11.3228781 20.3743138 11.3228781 21.9088125 9.78761174 21.9088125"></polygon>
            <polygon id="Path" fill="#000000" transform="translate(11.930355, 23.882249) rotate(-26.565051) translate(-11.930355, -23.882249) " points="11.1627223 23.1146163 12.6979886 23.1146163 12.6979886 24.6498827 11.1627223 24.6498827"></polygon>
            <polygon id="Path" fill="#000000" transform="translate(9.184742, 18.389357) rotate(-26.565051) translate(-9.184742, -18.389357) " points="8.41710921 17.6217236 9.95237559 17.6217236 9.95237559 19.15699 8.41710921 19.15699"></polygon>
        </g>
    </g>
</svg>