<?xml version="1.0" encoding="UTF-8"?>
<svg width="62px" height="62px" viewBox="0 0 62 62" version="1.1" xmlns="http://www.w3.org/2000/svg" xmlns:xlink="http://www.w3.org/1999/xlink">
    <!-- Generator: Sketch 64 (93537) - https://sketch.com -->
    <title>Atoms/Assets/Icons/Iron</title>
    <desc>Created with Sketch.</desc>
    <g id="Atoms/Assets/Icons/Iron" stroke="none" stroke-width="1" fill="none" fill-rule="evenodd">
        <g id="iron-copy" transform="translate(7.000000, 7.000000)" fill-rule="nonzero">
            <path d="M16.128,29.43744 C19.41504,27.78624 23.10144,26.88 26.94912,26.88 L35.328,26.88 L36.096,26.88 L37.248,29.56032 L40.704,37.632 L36.096,43.776 L5.376,43.776 L3.84,43.776 C5.43744,38.7456 8.57856,34.5216 12.6336,31.55712 C12.77952,31.4496 12.93312,31.34208 13.07904,31.24992 L13.07904,31.24224 C14.04672,30.5664 15.06816,29.95968 16.128,29.43744 L16.128,29.43744 Z M35.328,36.096 L33.024,30.72 L26.44992,30.72 C24.06912,30.72 21.82656,31.50336 20.01408,32.84736 C18.2016,34.19904 16.81152,36.11904 16.128,38.4 L22.272,38.4 L29.952,38.4 L33.792,38.4 L35.328,36.096 Z" id="Shape" fill="#00A8E1"></path>
            <g id="Group-7" transform="translate(0.001823, 0.000000)">
                <path d="M10.4045775,2.86464 C10.4045775,2.87232 10.4045775,2.87232 10.4122575,2.88 C10.8039375,2.10432 11.4567375,1.47456 12.2477775,1.10592 C12.3322575,1.0752 12.4090575,1.0368 12.4935375,1.00608 C12.5780175,0.97536 12.6624975,0.94464 12.7469775,0.9216 C12.8544975,0.89088 12.9620175,0.86016 13.0695375,0.8448 C13.1924175,0.82176 13.3076175,0.79872 13.4304975,0.79104 C13.5610575,0.77568 13.6916175,0.768 13.8221775,0.768 C13.9988175,0.768 14.1908175,0.78336 14.3751375,0.8064 C15.8036175,1.00608 17.0170575,2.05056 17.4701775,3.4176 C17.8157775,4.46976 17.6698575,5.44512 17.2704975,6.27456 C18.3303375,6.03648 19.4976975,6.09024 20.7341775,6.6816 C22.3469775,7.46496 23.5296975,9.01632 23.7600975,10.79808 C24.1901775,14.08512 21.6327375,16.896 18.4301775,16.896 C18.2765775,16.896 18.1306575,16.88832 17.9847375,16.87296 L17.6928975,17.3568 C16.6714575,19.06176 16.1261775,21.02016 16.1261775,23.01696 L16.1261775,23.04 L13.0541775,23.04 L13.0541775,23.01696 C13.0541775,21.02016 12.5088975,19.06176 11.4874575,17.3568 C10.7732175,17.664 9.94377749,17.75616 9.08361749,17.55648 C7.66281749,17.23392 6.53385749,16.06656 6.22665749,14.63808 C6.16521749,14.3616 6.14217749,14.0928 6.14217749,13.824 C6.14217749,13.69344 6.14985749,13.56288 6.16521749,13.44 C6.17289749,13.34784 6.18057749,13.25568 6.20361749,13.16352 C6.21897749,13.056 6.24201749,12.95616 6.27273749,12.84864 C6.41097749,12.33408 6.66441749,11.85792 6.98697749,11.45088 C6.97929749,11.45088 6.97161749,11.45088 6.96393749,11.45088 C6.69513749,11.48928 6.42633749,11.52 6.14217749,11.52 C2.82441749,11.52 0.205537488,8.50944 0.873697488,5.0688 C1.28073749,2.97216 2.96265749,1.29024 5.05161749,0.87552 C7.21737749,0.44544 9.20649749,1.32864 10.4045775,2.86464 Z" id="Path" fill-opacity="0.2" fill="#641BB4"></path>
                <path d="M5.39337749,13.444608 C5.38876949,13.502208 5.38723349,13.559808 5.38492949,13.618176 C5.38185749,13.687296 5.37417749,13.75488 5.37417749,13.824 L5.38492949,13.824 C5.38492949,14.147328 5.40873749,14.473728 5.47862549,14.800896 C5.85033749,16.538112 7.19664149,17.915136 8.90774549,18.308352 C9.65424149,18.478848 10.4091855,18.471168 11.1280335,18.286848 C11.8875855,19.743744 12.2861775,21.368064 12.2861775,23.04 L13.8221775,23.01312 C13.8221775,20.88192 13.2423375,18.78912 12.1456335,16.96128 L11.8015695,16.387584 L11.1864015,16.65024 C10.5819855,16.90752 9.91305749,16.964352 9.25257749,16.81152 C8.13667349,16.555008 7.22428949,15.618048 6.98083349,14.479872 C6.93244949,14.254848 6.91017749,14.029824 6.91171349,13.807104 C6.91171349,13.784064 6.91785749,13.761792 6.91862549,13.738752 C6.92476949,13.539072 6.94550549,13.340928 6.99004949,13.14816 C6.99388949,13.131264 7.00080149,13.115904 7.00540949,13.099776 C7.11139349,12.681216 7.30416149,12.283392 7.58832149,11.925504 L7.66588949,11.827968 C8.23036949,11.175168 9.05366549,10.752 9.98217749,10.752 L9.98217749,9.216 C8.63510549,9.216 7.42550549,9.800448 6.58224149,10.724352 C6.42787349,10.741248 6.28041749,10.752 6.14217749,10.752 C4.76131349,10.752 3.46492949,10.139904 2.58480149,9.073152 C1.70544149,8.0064 1.35523349,6.599424 1.62480149,5.212416 C1.97193749,3.422976 3.40809749,1.982976 5.19830549,1.629696 C6.80649749,1.311744 8.41545749,1.844736 9.50371349,3.015936 C9.31939349,3.512832 9.21417749,4.04736 9.21417749,4.608 L10.7501775,4.608 C10.7501775,4.201728 10.8331215,3.816192 10.9775055,3.460608 L11.0942415,3.230208 C11.3031375,2.81856 11.5919055,2.477568 11.9290575,2.207232 C11.9659215,2.178048 11.9989455,2.145024 12.0373455,2.118144 C12.1126095,2.063616 12.1932495,2.018304 12.2731215,1.970688 C12.3522255,1.92384 12.4328655,1.878528 12.5165775,1.838592 C12.5895375,1.804032 12.6640335,1.771776 12.7400655,1.74336 C12.8445135,1.703424 12.9520335,1.671936 13.0610895,1.64352 C13.1271375,1.626624 13.1908815,1.605888 13.2584655,1.5936 C13.4343375,1.560576 13.6140495,1.540608 13.7991375,1.539072 C13.9542735,1.537536 14.1117135,1.545984 14.2699215,1.568256 C15.4042575,1.728 16.3727055,2.54976 16.7382735,3.661824 C16.9909455,4.430592 16.9364175,5.197824 16.5769935,5.939712 L15.8857935,7.365888 L17.4333135,7.024128 C18.4616655,6.797568 19.4324175,6.912 20.3993295,7.377408 C21.8078415,8.054784 22.8031695,9.403392 22.9974735,10.897152 C23.1733455,12.247296 22.7816655,13.548288 21.8938575,14.558976 C20.9676495,15.614208 19.5798735,16.173312 18.1990095,16.111104 C16.5193935,16.025088 14.9918415,15.024384 14.2653135,13.495296 L12.8775375,14.15424 C13.6470735,15.773952 15.0909135,16.9536 16.7736015,17.428992 C15.8504655,19.143168 15.3581775,21.060864 15.3581775,23.01312 L15.3581775,23.04 L16.8941775,23.01312 C16.8941775,21.159936 17.3979855,19.340544 18.3510735,17.751552 L18.4040655,17.664 C18.4086735,17.664 18.4140495,17.663232 18.4186575,17.663232 C18.4224975,17.663232 18.4263375,17.664 18.4301775,17.664 L18.4301775,17.662464 C20.1796815,17.653248 21.8808015,16.901376 23.0481615,15.572736 C24.2139855,14.244864 24.7508175,12.46848 24.5204175,10.699008 C24.2600655,8.696832 22.9360335,6.8928 21.0644175,5.992704 C20.1888975,5.57184 19.2811215,5.355264 18.3610575,5.376768 C18.4893135,4.65024 18.4355535,3.907584 18.1967055,3.181056 C17.6498895,1.517568 16.1922255,0.287232 14.4834255,0.04608 C14.2622415,0.01536 14.0410575,0.004608 13.8221775,0.005376 L13.8221775,0 C12.4144335,0 11.1533775,0.636672 10.3078095,1.635072 C8.87318549,0.305664 6.88329749,-0.2688 4.90108949,0.12288 C2.50492949,0.595968 0.581857488,2.523648 0.117217488,4.919808 C-0.239902512,6.759168 0.227809488,8.629248 1.39977749,10.050048 C2.46729749,11.344896 3.99561749,12.136704 5.64988949,12.268032 C5.51548949,12.64128 5.42716949,13.035264 5.39337749,13.444608 L5.39337749,13.444608 Z" id="Path" fill="#000000"></path>
                <path d="M18.4301775,13.056 L18.4301775,14.592 C20.1243855,14.592 21.5021775,13.214208 21.5021775,11.52 C21.5021775,9.825792 20.1243855,8.448 18.4301775,8.448 L18.4301775,9.984 C19.2772815,9.984 19.9661775,10.672896 19.9661775,11.52 C19.9661775,12.367104 19.2772815,13.056 18.4301775,13.056 Z" id="Path" fill="#000000"></path>
                <path d="M6.14217749,4.608 L6.14217749,3.072 C4.44796949,3.072 3.07017749,4.449792 3.07017749,6.144 C3.07017749,7.838208 4.44796949,9.216 6.14217749,9.216 L6.14217749,7.68 C5.29507349,7.68 4.60617749,6.991104 4.60617749,6.144 C4.60617749,5.296896 5.29507349,4.608 6.14217749,4.608 Z" id="Path" fill="#000000"></path>
            </g>
            <polygon id="Path" fill="#FBC716" points="5.376 43.776 36.096 43.776 36.096 46.848 5.376 46.848"></polygon>
            <path d="M29.952,38.4 L22.272,38.4 C22.272,36.70272 23.64672,35.328 25.344,35.328 L26.88,35.328 C28.57728,35.328 29.952,36.70272 29.952,38.4 Z" id="Path" fill="#FCD770"></path>
            <path d="M16.128,26.112 L16.128,29.43744 C15.06816,29.95968 14.04672,30.5664 13.07904,31.24224 L13.056,31.2192 L13.056,26.112 L16.128,26.112 Z" id="Path" fill="#00A8E1"></path>
            <polygon id="Path" fill="#00A8E1" points="39.552 24.96 40.704 26.112 37.26336 29.55264 37.248 29.56032 36.096 26.88 35.328 26.88 38.4 23.808"></polygon>
            <path d="M14.940672,32.739072 C14.502912,33.024768 14.06592,33.332736 13.642752,33.654528 L14.5728,34.877184 C14.966784,34.577664 15.373056,34.2912 15.780096,34.025472 L14.940672,32.739072 Z" id="Path" fill="#000000"></path>
            <path d="M7.83744,40.32768 L9.176064,41.08032 C10.308864,39.067392 11.76192,37.276416 13.496064,35.757312 L12.48384,34.60224 C10.618368,36.236544 9.055488,38.162688 7.83744,40.32768 L7.83744,40.32768 Z" id="Path" fill="#000000"></path>
            <path d="M26.44992,29.952 C21.312768,29.952 16.868352,33.25824 15.392256,38.178816 L15.095808,39.168 L34.20288,39.168 L36.197376,36.175872 L33.530112,29.952 L26.44992,29.952 Z M23.181312,37.632 C23.499264,36.740352 24.344064,36.096 25.344,36.096 L26.88,36.096 C27.879936,36.096 28.724736,36.740352 29.042688,37.632 L23.181312,37.632 Z M33.38112,37.632 L30.642432,37.632 C30.285312,35.881728 28.73472,34.56 26.88,34.56 L25.344,34.56 C23.490048,34.56 21.938688,35.881728 21.581568,37.632 L17.215488,37.632 C18.7584,33.917184 22.349568,31.488 26.44992,31.488 L32.51712,31.488 L34.457856,36.016128 L33.38112,37.632 Z" id="Shape" fill="#000000"></path>
            <path d="M43.458048,19.968 L39.552,23.874048 L38.4,22.722048 L35.010048,26.112 L26.946816,26.112 C23.395584,26.112 19.993344,26.8608 16.896,28.214016 L16.896,25.344 L12.288,25.344 L12.288,30.837504 C8.054016,33.89568 4.782336,38.281728 3.108096,43.543296 L2.789376,44.544 L4.608,44.544 L4.608,47.616 L36.864,47.616 L36.864,44.031744 L41.584896,37.737216 L38.15808,29.743104 L41.789952,26.112 L40.637952,24.96 L44.093952,21.504 L47.616,21.504 L47.616,19.968 L43.458048,19.968 Z M13.824,26.88 L15.36,26.88 L15.36,28.940544 C14.83776,29.212416 14.324736,29.500416 13.824,29.808384 L13.824,26.88 Z M6.144,46.08 L6.144,44.544 L35.328,44.544 L35.328,46.08 L6.144,46.08 Z M35.712,43.008 L4.9152,43.008 C8.307456,33.777408 17.031936,27.648 26.947584,27.648 L35.58912,27.648 L39.823104,37.526016 L35.712,43.008 Z M37.506816,28.223232 L36.77568,26.518272 L38.4,24.893952 L39.618048,26.112 L37.506816,28.223232 Z" id="Shape" fill="#000000"></path>
        </g>
    </g>
</svg>