<?xml version="1.0" encoding="UTF-8"?>
<svg width="62px" height="62px" viewBox="0 0 62 62" version="1.1" xmlns="http://www.w3.org/2000/svg" xmlns:xlink="http://www.w3.org/1999/xlink">
    <!-- Generator: Sketch 64 (93537) - https://sketch.com -->
    <title>Atoms/Assets/Icons/WashAndIron</title>
    <desc>Created with Sketch.</desc>
    <g id="Atoms/Assets/Icons/WashAndIron" stroke="none" stroke-width="1" fill="none" fill-rule="evenodd">
        <g id="Group-9" transform="translate(1.000000, 10.000000)" fill-rule="nonzero">
            <g id="Group-6">
                <g id="household">
                    <path d="M30.1771008,40.9067366 L3.3530112,40.9067366 C1.87165085,40.9067366 0.67060224,39.705688 0.67060224,38.2243277 L0.67060224,3.3530112 C0.67060224,1.87165085 1.87165085,0.67060224 3.3530112,0.67060224 L30.1771008,0.67060224 C31.6584611,0.67060224 32.8595098,1.87165085 32.8595098,3.3530112 L32.8595098,38.2243277 C32.8595098,39.705688 31.6584611,40.9067366 30.1771008,40.9067366 Z" id="Path" fill="#EFE8F7"></path>
                    <path d="M0.67060224,36.8831232 L32.8595098,36.8831232 L32.8595098,38.2243277 C32.8595098,39.705688 31.6584611,40.9067366 30.1771008,40.9067366 L3.3530112,40.9067366 C1.87165085,40.9067366 0.67060224,39.705688 0.67060224,38.2243277 L0.67060224,36.8831232 Z" id="Path" fill-opacity="0.2" fill="#641BB4"></path>
                    <path d="M30.1771008,39.5655322 L3.3530112,39.5655322 C1.87165085,39.5655322 0.67060224,38.3644835 0.67060224,36.8831232 L0.67060224,38.2243277 C0.67060224,39.705688 1.87165085,40.9067366 3.3530112,40.9067366 L30.1771008,40.9067366 C31.6584611,40.9067366 32.8595098,39.705688 32.8595098,38.2243277 L32.8595098,36.8831232 C32.8595098,38.3644835 31.6584611,39.5655322 30.1771008,39.5655322 Z" id="Path" fill="#641BB4"></path>
                    <path d="M32.8595098,4.69421568 L0.67060224,4.69421568 L0.67060224,3.3530112 C0.67060224,1.87165085 1.87165085,0.67060224 3.3530112,0.67060224 L30.1771008,0.67060224 C31.6584611,0.67060224 32.8595098,1.87165085 32.8595098,3.3530112 L32.8595098,4.69421568 Z" id="Path" fill-opacity="0.2" fill="#641BB4"></path>
                    <rect id="Rectangle" fill="#00A8E1" x="0.67060224" y="4.69421568" width="32.1889075" height="8.04722688"></rect>
                    <rect id="Rectangle" fill="#148CE0" x="0.67060224" y="11.4002381" width="32.1889075" height="1.34120448"></rect>
                    <rect id="Rectangle" fill="#ECECEC" x="3.3530112" y="7.37662464" width="6.7060224" height="2.68240896"></rect>
                    <circle id="Oval" fill="#641BB4" cx="14.082647" cy="8.71782912" r="1.34120448"></circle>
                    <circle id="Oval" fill="#8C95A4" cx="16.765056" cy="24.8122829" r="9.38843136"></circle>
                    <path d="M16.765056,32.8595098 C11.806623,32.8595098 7.75551491,29.0122647 7.41015475,24.1416806 C7.3947309,24.3643206 7.37662464,24.5856193 7.37662464,24.8122829 C7.37662464,29.9973794 11.5799595,34.2007142 16.765056,34.2007142 C21.9501525,34.2007142 26.1534874,29.9973794 26.1534874,24.8122829 C26.1534874,24.5856193 26.1353811,24.3643206 26.1199572,24.1416806 C25.7745971,29.0122647 21.723489,32.8595098 16.765056,32.8595098 Z" id="Path" fill="#798699"></path>
                    <circle id="Oval" fill="#641BB4" cx="16.765056" cy="24.8122829" r="6.7060224"></circle>
                    <path d="M19.9866292,24.6761506 C19.1980009,25.2025734 18.2712286,25.4828851 17.3229971,25.4828851 C15.7175753,25.4828851 14.2181087,26.2849254 13.3275489,27.6207651 L12.0708403,29.5064986 L12.0708403,29.5977005 C13.2806068,30.7846664 14.9363237,31.5183053 16.765056,31.5183053 C20.4687922,31.5183053 23.4710784,28.5160191 23.4710784,24.8122829 C23.4710784,24.1115035 23.3624408,23.4355365 23.163272,22.8004762 L22.8004762,22.8004762 L19.9866292,24.6761506 Z" id="Path" fill="#460D84"></path>
                    <rect id="Rectangle" fill="#641BB4" x="0.67060224" y="35.5419187" width="32.1889075" height="1.34120448"></rect>
                    <rect id="Rectangle" fill="#641BB4" x="0.67060224" y="3.3530112" width="32.1889075" height="1.34120448"></rect>
                    <path d="M30.1771008,0 L3.3530112,0 C1.50416082,0 0,1.50416082 0,3.3530112 L0,38.2243277 C0,40.0731781 1.50416082,41.5773389 3.3530112,41.5773389 L30.1771008,41.5773389 C32.0259512,41.5773389 33.530112,40.0731781 33.530112,38.2243277 L33.530112,3.3530112 C33.530112,1.50416082 32.0259512,0 30.1771008,0 Z M3.3530112,1.34120448 L30.1771008,1.34120448 C31.2862769,1.34120448 32.1889075,2.2438351 32.1889075,3.3530112 L32.1889075,4.02361344 L1.34120448,4.02361344 L1.34120448,3.3530112 C1.34120448,2.2438351 2.2438351,1.34120448 3.3530112,1.34120448 Z M1.34120448,12.0708403 L1.34120448,5.36481792 L17.4356582,5.36481792 L17.4356582,12.0708403 L1.34120448,12.0708403 Z M18.7768627,5.36481792 L32.1889075,5.36481792 L32.1889075,12.0708403 L18.7768627,12.0708403 L18.7768627,5.36481792 Z M30.1771008,40.2361344 L3.3530112,40.2361344 C2.2438351,40.2361344 1.34120448,39.3335038 1.34120448,38.2243277 L1.34120448,37.5537254 L28.1652941,37.5537254 L28.1652941,36.212521 L1.34120448,36.212521 L1.34120448,13.4120448 L32.1889075,13.4120448 L32.1889075,36.212521 L29.5064986,36.212521 L29.5064986,37.5537254 L32.1889075,37.5537254 L32.1889075,38.2243277 C32.1889075,39.3335038 31.2862769,40.2361344 30.1771008,40.2361344 Z" id="Shape" fill="#000000"></path>
                    <path d="M2.68240896,10.7296358 L10.7296358,10.7296358 L10.7296358,6.7060224 L2.68240896,6.7060224 L2.68240896,10.7296358 Z M4.02361344,8.04722688 L9.38843136,8.04722688 L9.38843136,9.38843136 L4.02361344,9.38843136 L4.02361344,8.04722688 Z" id="Shape" fill="#000000"></path>
                    <path d="M14.082647,6.7060224 C12.9734709,6.7060224 12.0708403,7.60865302 12.0708403,8.71782912 C12.0708403,9.82700522 12.9734709,10.7296358 14.082647,10.7296358 C15.1918231,10.7296358 16.0944538,9.82700522 16.0944538,8.71782912 C16.0944538,7.60865302 15.1918231,6.7060224 14.082647,6.7060224 Z M14.082647,9.38843136 C13.7124746,9.38843136 13.4120448,9.08800156 13.4120448,8.71782912 C13.4120448,8.34765668 13.7124746,8.04722688 14.082647,8.04722688 C14.4528195,8.04722688 14.7532493,8.34765668 14.7532493,8.71782912 C14.7532493,9.08800156 14.4528195,9.38843136 14.082647,9.38843136 Z" id="Shape" fill="#000000"></path>
                    <rect id="Rectangle" fill="#000000" x="20.7886694" y="6.7060224" width="9.38843136" height="1.34120448"></rect>
                    <path d="M16.765056,14.7532493 C11.2185049,14.7532493 6.7060224,19.2657318 6.7060224,24.8122829 C6.7060224,30.358834 11.2185049,34.8713165 16.765056,34.8713165 C22.3116071,34.8713165 26.8240896,30.358834 26.8240896,24.8122829 C26.8240896,19.2657318 22.3116071,14.7532493 16.765056,14.7532493 Z M16.765056,33.530112 C11.9581791,33.530112 8.04722688,29.6191597 8.04722688,24.8122829 C8.04722688,20.005406 11.9581791,16.0944538 16.765056,16.0944538 C21.5719329,16.0944538 25.4828851,20.005406 25.4828851,24.8122829 C25.4828851,29.6191597 21.5719329,33.530112 16.765056,33.530112 Z" id="Shape" fill="#000000"></path>
                    <path d="M16.765056,17.4356582 C12.6978534,17.4356582 9.38843136,20.7450803 9.38843136,24.8122829 C9.38843136,28.8794855 12.6978534,32.1889075 16.765056,32.1889075 C20.8322586,32.1889075 24.1416806,28.8794855 24.1416806,24.8122829 C24.1416806,20.7450803 20.8322586,17.4356582 16.765056,17.4356582 Z M16.765056,18.7768627 C19.2154366,18.7768627 21.3244806,20.2468228 22.2693592,22.3484903 L19.6144449,24.1188802 C18.9337836,24.5728779 18.1418024,24.8122829 17.3229971,24.8122829 C15.4895705,24.8122829 13.7869115,25.7229607 12.7696079,27.2492514 L11.9648852,28.4563355 C11.1936926,27.4423849 10.7296358,26.1816527 10.7296358,24.8122829 C10.7296358,21.484084 13.4368571,18.7768627 16.765056,18.7768627 Z M16.765056,30.847703 C15.3011313,30.847703 13.957915,30.3232921 12.9124461,29.453521 L13.88549,27.9929493 C14.6540001,26.8408547 15.938874,26.1534874 17.3229971,26.1534874 C18.4073609,26.1534874 19.457524,25.8356219 20.3581428,25.2347623 L22.6898268,23.6803063 C22.76024,24.0471257 22.8004762,24.4246748 22.8004762,24.8122829 C22.8004762,28.1404818 20.0932549,30.847703 16.765056,30.847703 Z" id="Shape" fill="#000000"></path>
                    <rect id="Rectangle" fill="#000000" x="28.8358963" y="9.38843136" width="1.34120448" height="1.34120448"></rect>
                    <rect id="Rectangle" fill="#000000" x="26.1534874" y="9.38843136" width="1.34120448" height="1.34120448"></rect>
                    <rect id="Rectangle" fill="#000000" x="23.4710784" y="9.38843136" width="1.34120448" height="1.34120448"></rect>
                    <rect id="Rectangle" fill="#000000" x="20.7886694" y="9.38843136" width="1.34120448" height="1.34120448"></rect>
                </g>
                <g id="iron" transform="translate(16.609824, 13.970880)">
                    <path d="M13.0084416,9.93236429 C16.1975278,8.33037005 19.7740731,7.451136 23.5070922,7.451136 L31.6362816,7.451136 L32.3813952,7.451136 L33.4990656,10.0515825 L36.8520768,17.8827264 L32.3813952,23.8436352 L2.5768512,23.8436352 L1.086624,23.8436352 C2.63646029,18.9631411 5.68397491,14.8650163 9.61817472,11.9888778 C9.7597463,11.8845619 9.90876902,11.780246 10.0503406,11.6908324 L10.0503406,11.6833812 C10.9891837,11.0276813 11.9801848,10.4390415 13.0084416,9.93236429 L13.0084416,9.93236429 Z M31.6362816,16.3924992 L29.4009408,11.176704 L23.0227684,11.176704 C20.7129162,11.176704 18.5371845,11.9367199 16.7787164,13.2406687 C15.0202483,14.5520686 13.6715927,16.4148526 13.0084416,18.62784 L18.9693504,18.62784 L26.4204864,18.62784 L30.1460544,18.62784 L31.6362816,16.3924992 Z" id="Shape" fill="#00A8E1"></path>
                    <polygon id="Path" fill="#FBC716" points="2.5768512 23.8436352 32.3813952 23.8436352 32.3813952 26.8240896 2.5768512 26.8240896"></polygon>
                    <path d="M26.4204864,18.62784 L18.9693504,18.62784 C18.9693504,16.9811389 20.3031037,15.6473856 21.9498048,15.6473856 L23.440032,15.6473856 C25.0867331,15.6473856 26.4204864,16.9811389 26.4204864,18.62784 Z" id="Path" fill="#FCD770"></path>
                    <path d="M13.0084416,6.7060224 L13.0084416,9.93236429 C11.9801848,10.4390415 10.9891837,11.0276813 10.0503406,11.6833812 L10.0279872,11.6610278 L10.0279872,6.7060224 L13.0084416,6.7060224 Z" id="Path" fill="#00A8E1"></path>
                    <polygon id="Path" fill="#00A8E1" points="35.7344064 5.588352 36.8520768 6.7060224 33.5139679 10.0441313 33.4990656 10.0515825 32.3813952 7.451136 31.6362816 7.451136 34.616736 4.4706816"></polygon>
                    <path d="M11.856496,13.1356077 C11.4317812,13.4127899 11.0078116,13.7115805 10.597254,14.0237831 L11.4995866,15.2100039 C11.8818298,14.9194096 12.2759949,14.6414822 12.6709051,14.3836729 L11.856496,13.1356077 Z" id="Path" fill="#000000"></path>
                    <path d="M4.96494029,20.4980751 L6.26367329,21.2282865 C7.36271585,19.2753437 8.77247078,17.5377388 10.4549373,16.0639041 L9.47287757,14.9432532 C7.66299663,16.528855 6.14669046,18.3975999 4.96494029,20.4980751 L4.96494029,20.4980751 Z" id="Path" fill="#000000"></path>
                    <path d="M23.0227684,10.4315904 C18.0387035,10.4315904 13.7267311,13.6393044 12.2946228,18.4132473 L12.0070089,19.3729536 L30.5446902,19.3729536 L32.4797502,16.469991 L29.8919707,10.4315904 L23.0227684,10.4315904 Z M19.8515649,17.8827264 C20.1600419,17.0176495 20.9796669,16.3924992 21.9498048,16.3924992 L23.440032,16.3924992 C24.4101699,16.3924992 25.2297949,17.0176495 25.5382719,17.8827264 L19.8515649,17.8827264 Z M29.7474186,17.8827264 L27.0903435,17.8827264 C26.7438657,16.1846125 25.2394813,14.902272 23.440032,14.902272 L21.9498048,14.902272 C20.1511006,14.902272 18.6459711,16.1846125 18.2994933,17.8827264 L14.0635225,17.8827264 C15.5604557,14.2786119 19.0446069,11.9218176 23.0227684,11.9218176 L28.9091658,11.9218176 L30.7920679,16.3150074 L29.7474186,17.8827264 Z" id="Shape" fill="#000000"></path>
                    <path d="M39.5240542,0.7451136 L35.7344064,4.53476137 L34.616736,3.41709097 L31.3278046,6.7060224 L23.5048569,6.7060224 C20.0594516,6.7060224 16.7585983,7.43250816 13.7535552,8.74539832 L13.7535552,5.9609088 L9.2828736,5.9609088 L9.2828736,11.2907064 C5.17506232,14.2577487 2.00087839,18.5130925 0.376530739,23.6178658 L0.0673085952,24.5887488 L1.8317376,24.5887488 L1.8317376,27.5692032 L33.1265088,27.5692032 L33.1265088,24.091758 L37.7067221,17.984807 L34.3820252,10.2289195 L37.9056674,6.7060224 L36.787997,5.588352 L40.1410082,2.2353408 L43.5580992,2.2353408 L43.5580992,0.7451136 L39.5240542,0.7451136 Z M10.7731008,7.451136 L12.263328,7.451136 L12.263328,9.45027579 C11.7566508,9.714046 11.2589149,9.9934636 10.7731008,10.2922542 L10.7731008,7.451136 Z M3.3219648,26.078976 L3.3219648,24.5887488 L31.6362816,24.5887488 L31.6362816,26.078976 L3.3219648,26.078976 Z M32.0088384,23.0985216 L2.12978304,23.0985216 C5.42094981,14.1430012 13.8854403,8.1962496 23.505602,8.1962496 L31.8896202,8.1962496 L35.9974315,17.7799007 L32.0088384,23.0985216 Z M33.7501689,8.75433969 L33.0408207,7.10018749 L34.616736,5.52427223 L35.7984862,6.7060224 L33.7501689,8.75433969 Z" id="Shape" fill="#000000"></path>
                </g>
            </g>
        </g>
    </g>
</svg>